<svg xmlns="http://www.w3.org/2000/svg" xmlns:xlink="http://www.w3.org/1999/xlink" width="500" zoomAndPan="magnify" viewBox="0 0 375 374.999991" height="500" preserveAspectRatio="xMidYMid meet" version="1.0"><defs><g/><clipPath id="791dda9fe0"><path d="M 80.425781 100.917969 L 248 100.917969 L 248 274 L 80.425781 274 Z M 80.425781 100.917969 " clip-rule="nonzero"/></clipPath></defs><rect x="-37.5" width="450" fill="#ffffff" y="-37.499999" height="449.999989" fill-opacity="1"/><rect x="-37.5" width="450" fill="#ffffff" y="-37.499999" height="449.999989" fill-opacity="1"/><path fill="#ffb5cf" d="M 192.859375 212.398438 C 192.152344 212.453125 191.558594 212.84375 191.003906 213.308594 C 191.003906 213.308594 189.28125 214.644531 189.28125 214.644531 C 176.371094 224.582031 158.136719 238.648438 139.890625 252.277344 C 134.371094 255.804688 128.25 251.878906 129.460938 245.488281 C 129.480469 245.292969 129.867188 243.375 129.921875 243.058594 C 134.441406 219.828125 138.523438 199.1875 142.136719 181.242188 C 142.167969 181.039062 142.277344 180.570312 142.3125 180.375 C 142.402344 180.082031 142.285156 179.828125 142.03125 179.640625 C 128.773438 167.703125 111.203125 151.847656 97.460938 139.359375 C 96.152344 138.167969 95.269531 136.699219 95.140625 135.261719 C 94.699219 131.367188 99.199219 128.421875 104.617188 128.894531 C 120.671875 130.101562 135.226562 131.234375 148.476562 132.273438 C 151.089844 132.460938 157.980469 133.027344 160.230469 133.195312 C 160.054688 133.183594 159.898438 133.238281 159.816406 133.351562 C 159.808594 133.359375 159.808594 133.363281 159.828125 133.328125 L 159.886719 133.246094 C 165.445312 124.757812 171.917969 114.890625 176.367188 108.191406 C 176.730469 107.582031 177.289062 107.085938 178.082031 106.875 C 180.644531 106.113281 184.671875 108.082031 186.402344 110.917969 C 187.503906 112.71875 190.378906 117.347656 191.542969 119.253906 C 195.199219 125.191406 202.035156 136.273438 205.816406 142.464844 C 205.816406 142.464844 205.875 142.554688 205.875 142.554688 C 205.902344 142.597656 205.894531 142.589844 205.886719 142.582031 C 205.804688 142.457031 205.675781 142.351562 205.542969 142.308594 C 205.550781 142.308594 205.507812 142.300781 205.550781 142.308594 C 216.386719 145.992188 226.632812 149.480469 236.054688 152.722656 C 236.054688 152.722656 236.355469 152.828125 236.355469 152.828125 C 236.355469 152.828125 236.507812 152.878906 236.507812 152.878906 C 237.8125 153.285156 239.261719 154.480469 240.121094 155.894531 C 241.109375 157.457031 241.460938 159.3125 240.925781 160.457031 C 240.855469 160.582031 240.78125 160.757812 240.695312 160.867188 C 240.695312 160.867188 240.113281 161.710938 240.113281 161.710938 C 236.066406 167.550781 229.972656 176.261719 224.875 183.519531 C 224.875 183.519531 224.820312 183.605469 224.820312 183.605469 C 224.789062 183.652344 224.777344 183.714844 224.769531 183.777344 C 224.769531 183.828125 224.777344 183.882812 224.789062 183.941406 C 224.789062 183.941406 224.824219 184.050781 224.824219 184.050781 C 224.824219 184.050781 224.902344 184.269531 224.902344 184.269531 C 224.902344 184.269531 225.050781 184.710938 225.050781 184.710938 C 228.039062 193.585938 233.203125 209.0625 236.523438 219.015625 C 236.523438 219.015625 239.300781 227.398438 239.300781 227.398438 L 239.660156 228.46875 L 239.75 228.738281 C 239.765625 228.773438 239.785156 228.847656 239.808594 228.917969 C 239.808594 228.917969 239.871094 229.121094 239.871094 229.121094 C 240.28125 230.5 240.296875 232.042969 239.890625 233.210938 C 239.164062 235.398438 237.25 236.265625 235.378906 235.164062 C 235.164062 235.046875 234.378906 234.625 234.140625 234.492188 C 233.179688 233.988281 230.15625 232.335938 229.113281 231.78125 C 219.214844 226.410156 205.613281 219.035156 194.871094 213.039062 C 194.226562 212.667969 193.566406 212.367188 192.859375 212.398438 C 193.554688 212.296875 194.269531 212.550781 194.910156 212.871094 C 194.910156 212.871094 196.875 213.761719 196.875 213.761719 C 209.753906 219.660156 224.414062 226.515625 235.835938 231.921875 C 236.859375 232.527344 237.867188 231.410156 237.371094 229.90625 C 237.371094 229.90625 237.347656 229.835938 237.347656 229.835938 C 237.339844 229.816406 237.339844 229.800781 237.320312 229.746094 L 237.222656 229.480469 C 237.222656 229.480469 236.835938 228.40625 236.835938 228.40625 C 231.800781 214.53125 225.566406 197.148438 221.191406 184.890625 C 220.582031 183.359375 220.53125 181.710938 221.097656 180.542969 C 221.234375 180.214844 224.300781 175.800781 224.53125 175.445312 C 228.410156 169.730469 233.964844 161.714844 237.125 157.121094 C 237.117188 157.121094 237.117188 157.136719 237.117188 157.144531 C 237.101562 157.144531 237.117188 157.164062 237.109375 157.164062 C 237.101562 157.234375 237.160156 157.304688 237.238281 157.347656 C 237.230469 157.347656 237.25 157.347656 237.222656 157.339844 C 237.222656 157.339844 237.144531 157.316406 237.144531 157.316406 C 237.144531 157.316406 236.992188 157.269531 236.992188 157.269531 C 229.757812 155.050781 222.113281 152.667969 214.046875 150.160156 C 212.90625 149.773438 207.699219 148.199219 206.652344 147.847656 C 206.484375 147.785156 205.84375 147.605469 205.699219 147.546875 C 204.023438 147.03125 202.34375 145.71875 201.339844 144.121094 C 201.339844 144.121094 201.1875 143.878906 201.1875 143.878906 C 201.1875 143.878906 200.964844 143.511719 200.964844 143.511719 C 194.976562 133.800781 186.625 120.253906 181.386719 111.609375 C 181.675781 111.925781 182.152344 111.996094 182.277344 111.765625 C 182.277344 111.765625 182.136719 111.996094 182.136719 111.996094 L 180.96875 113.90625 C 177.09375 120.210938 171.203125 130.046875 166.289062 137.8125 C 165.308594 139.023438 163.515625 139.675781 161.503906 139.542969 C 161.503906 139.542969 161.25 139.527344 161.25 139.527344 L 160.230469 139.464844 C 144.191406 138.402344 125.238281 137.1875 105.046875 135.746094 C 105.136719 135.726562 105.1875 135.667969 105.1875 135.648438 C 105.199219 135.628906 105.207031 135.613281 105.1875 135.558594 C 105.164062 135.542969 105.191406 135.527344 105.164062 135.515625 C 105.171875 135.5 105.15625 135.488281 105.136719 135.480469 C 105.152344 135.464844 105.117188 135.460938 105.117188 135.460938 C 105.121094 135.460938 105.121094 135.460938 105.117188 135.460938 C 105.117188 135.460938 105.109375 135.464844 105.109375 135.464844 C 105.085938 135.453125 105.171875 135.523438 105.191406 135.550781 C 115.074219 144.984375 130.195312 159.425781 139.820312 168.683594 C 139.820312 168.683594 146.9375 175.519531 146.9375 175.519531 C 146.9375 175.519531 147.082031 175.660156 147.082031 175.660156 C 147.558594 176.125 147.957031 176.640625 148.273438 177.1875 C 149.078125 178.566406 149.332031 180.1875 148.972656 181.683594 C 148.972656 181.683594 148.910156 181.964844 148.910156 181.964844 C 148.910156 181.964844 148.785156 182.53125 148.785156 182.53125 C 144.863281 200.539062 140.289062 221.355469 135 244.894531 C 135 244.894531 134.902344 245.320312 134.902344 245.320312 C 134.882812 245.40625 134.882812 245.425781 134.875 245.460938 C 134.875 245.460938 134.859375 245.566406 134.859375 245.566406 C 134.433594 247.667969 136.667969 248.992188 138.515625 247.648438 C 156.917969 235.402344 175.734375 222.957031 189.070312 214.292969 C 189.070312 214.292969 190.890625 213.117188 190.890625 213.117188 C 191.488281 212.734375 192.144531 212.390625 192.859375 212.398438 Z M 192.859375 212.398438 " fill-opacity="1" fill-rule="nonzero"/><g clip-path="url(#791dda9fe0)"><path fill="#a197d0" d="M 121.554688 273.917969 C 120.503906 273.917969 119.515625 273.644531 118.648438 273.078125 C 116.671875 271.796875 115.902344 269.335938 116.582031 266.5 L 136.421875 183.484375 C 136.753906 182.125 136.289062 180.703125 135.191406 179.6875 L 82.101562 130.613281 C 80.855469 129.457031 80.449219 128.089844 80.996094 126.859375 C 81.777344 125.101562 84.210938 124.09375 87.046875 124.351562 L 156.273438 130.648438 C 157.425781 130.753906 158.414062 130.394531 158.890625 129.6875 L 178.046875 101.617188 C 178.355469 101.160156 178.910156 100.929688 179.609375 100.9375 C 181.015625 100.964844 182.683594 101.964844 183.488281 103.269531 L 206.007812 139.578125 C 206.511719 140.390625 207.324219 141.046875 208.171875 141.34375 L 243.121094 153.226562 C 244.171875 153.585938 245.199219 154.683594 245.621094 155.894531 C 245.894531 156.679688 245.863281 157.382812 245.550781 157.871094 L 228.664062 183.945312 C 228.238281 184.605469 228.195312 185.601562 228.550781 186.601562 L 247.511719 239.738281 C 248.261719 241.839844 247.945312 244.0625 246.746094 245.132812 C 246.035156 245.769531 245.128906 245.867188 244.199219 245.414062 L 195.589844 221.613281 C 195.03125 221.339844 194.429688 221.226562 193.832031 221.285156 C 193.238281 221.339844 192.65625 221.570312 192.167969 221.949219 L 126.351562 272.132812 C 124.789062 273.308594 123.109375 273.917969 121.554688 273.917969 Z M 86.136719 124.722656 C 83.558594 124.722656 81.90625 125.828125 81.371094 127.027344 C 80.894531 128.105469 81.253906 129.269531 82.382812 130.3125 L 135.46875 179.386719 C 136.683594 180.507812 137.1875 182.078125 136.828125 183.582031 L 116.988281 266.597656 C 116.351562 269.253906 117.058594 271.550781 118.878906 272.734375 C 120.867188 274.03125 123.632812 273.671875 126.09375 271.796875 L 191.90625 221.613281 C 192.46875 221.1875 193.117188 220.925781 193.792969 220.863281 C 194.457031 220.800781 195.144531 220.925781 195.765625 221.234375 L 244.375 245.035156 C 245.15625 245.417969 245.878906 245.34375 246.46875 244.816406 C 247.378906 244.003906 247.890625 242.042969 247.117188 239.871094 L 228.160156 186.734375 C 227.761719 185.613281 227.816406 184.484375 228.3125 183.714844 L 245.199219 157.640625 C 245.445312 157.253906 245.457031 156.679688 245.226562 156.023438 C 244.84375 154.914062 243.925781 153.929688 242.988281 153.605469 L 208.039062 141.71875 C 207.097656 141.40625 206.210938 140.675781 205.65625 139.789062 L 183.136719 103.480469 C 182.296875 102.128906 180.6875 101.371094 179.601562 101.34375 C 179.210938 101.335938 178.675781 101.414062 178.390625 101.839844 L 159.234375 129.910156 C 158.667969 130.746094 157.546875 131.171875 156.238281 131.054688 L 87.011719 124.765625 C 86.710938 124.734375 86.414062 124.722656 86.136719 124.722656 Z M 86.136719 124.722656 " fill-opacity="1" fill-rule="nonzero"/></g><path fill="#a197d0" d="M 189.050781 177.761719 C 188.875 177.75 188.707031 177.785156 188.558594 177.859375 L 174.160156 185.164062 C 173.277344 185.613281 172.15625 184.808594 172.269531 183.800781 L 174.179688 167.144531 C 174.222656 166.792969 174.070312 166.417969 173.773438 166.136719 L 160.621094 153.578125 C 159.871094 152.863281 160.242188 151.847656 161.246094 151.863281 L 177.808594 152.113281 C 178.160156 152.121094 178.445312 151.960938 178.578125 151.695312 L 184.089844 140.535156 C 184.386719 139.949219 185.429688 140.152344 185.855469 140.875 L 193.636719 153.949219 C 193.8125 154.25 194.113281 154.480469 194.4375 154.574219 L 208.058594 158.4375 C 208.792969 158.648438 209.242188 159.609375 208.816406 160.0625 L 200.765625 168.769531 C 200.570312 168.980469 200.523438 169.300781 200.621094 169.636719 L 205.332031 185.027344 C 205.613281 185.929688 204.863281 186.585938 204.074219 186.140625 L 189.566406 177.910156 C 189.398438 177.824219 189.226562 177.769531 189.050781 177.761719 " fill-opacity="1" fill-rule="nonzero"/><path fill="#a197d0" d="M 205.25 137.488281 C 208.246094 133.105469 212.855469 128.148438 218.816406 127.375 C 223.066406 126.894531 226.960938 129.007812 229.601562 132.246094 C 236.402344 140.878906 237.761719 154.65625 237.964844 165.296875 C 238.070312 180.761719 235.324219 196.105469 230.933594 210.882812 C 227.046875 223.5625 222.003906 235.902344 214.90625 247.171875 C 209.5625 255.492188 201.441406 266.128906 191.214844 268.210938 C 186.996094 269.101562 182.117188 267.746094 179.160156 264.601562 C 174.125 259.140625 173.3125 251.800781 173.144531 244.84375 C 173.15625 242.667969 173.25 240.496094 173.480469 238.339844 C 173.480469 238.339844 174.179688 238.304688 174.179688 238.304688 C 174.691406 245.890625 175.855469 256.402344 181.667969 261.773438 C 186.925781 266.402344 193.628906 263.28125 198.09375 259.097656 C 215.230469 242.738281 226.128906 207.226562 230.058594 184.085938 C 232.230469 170.050781 233.65625 153.703125 229.253906 140.03125 C 227.136719 133.910156 223.101562 128.390625 215.894531 130.730469 C 211.894531 132.082031 208.640625 134.953125 205.761719 137.964844 C 205.761719 137.960938 205.25 137.488281 205.25 137.488281 Z M 205.25 137.488281 " fill-opacity="1" fill-rule="nonzero"/><path fill="#ffffff" d="M 103.710938 217.894531 C 103.542969 216.925781 103.472656 215.949219 103.496094 214.96875 C 103.519531 213.988281 103.640625 213.019531 103.851562 212.058594 C 104.066406 211.101562 104.371094 210.171875 104.765625 209.273438 C 105.160156 208.375 105.636719 207.519531 106.199219 206.714844 C 106.757812 205.910156 107.390625 205.164062 108.097656 204.484375 C 108.804688 203.800781 109.570312 203.191406 110.394531 202.660156 C 111.21875 202.128906 112.085938 201.679688 113 201.316406 C 113.910156 200.953125 114.851562 200.679688 115.816406 200.5 C 143.308594 196.171875 170.972656 194.019531 198.804688 194.035156 C 226.640625 194.050781 254.300781 196.238281 281.789062 200.597656 C 282.753906 200.777344 283.691406 201.050781 284.605469 201.414062 C 285.515625 201.78125 286.382812 202.230469 287.207031 202.761719 C 288.03125 203.296875 288.796875 203.90625 289.503906 204.589844 C 290.207031 205.269531 290.839844 206.015625 291.398438 206.824219 C 291.960938 207.628906 292.4375 208.480469 292.832031 209.382812 C 293.222656 210.28125 293.527344 211.210938 293.738281 212.167969 C 293.949219 213.128906 294.066406 214.097656 294.089844 215.078125 C 294.113281 216.0625 294.039062 217.035156 293.875 218.003906 L 293.761719 218.609375 C 293.589844 219.59375 293.324219 220.554688 292.964844 221.488281 C 292.601562 222.421875 292.15625 223.308594 291.617188 224.152344 C 291.078125 224.996094 290.464844 225.78125 289.769531 226.5 C 289.078125 227.222656 288.320312 227.867188 287.5 228.441406 C 286.679688 229.011719 285.808594 229.496094 284.890625 229.894531 C 283.972656 230.292969 283.023438 230.59375 282.046875 230.804688 C 281.066406 231.015625 280.078125 231.125 279.078125 231.136719 C 278.078125 231.148438 277.085938 231.0625 276.101562 230.878906 C 250.488281 226.863281 224.714844 224.847656 198.789062 224.832031 C 172.859375 224.816406 147.085938 226.804688 121.46875 230.789062 C 120.484375 230.972656 119.492188 231.058594 118.492188 231.042969 C 117.492188 231.03125 116.5 230.917969 115.523438 230.707031 C 114.546875 230.496094 113.597656 230.191406 112.679688 229.792969 C 111.761719 229.394531 110.894531 228.910156 110.074219 228.335938 C 109.253906 227.765625 108.496094 227.117188 107.804688 226.394531 C 107.109375 225.671875 106.496094 224.890625 105.960938 224.046875 C 105.425781 223.199219 104.976562 222.3125 104.617188 221.378906 C 104.257812 220.445312 103.992188 219.484375 103.824219 218.5 Z M 103.710938 217.894531 " fill-opacity="1" fill-rule="nonzero"/><g fill="#a197d0" fill-opacity="1"><g transform="translate(106.733086, 226.218251)"><g><path d="M 12.984375 -2.15625 L 0.25 -0.046875 C 0.507812 -0.421875 0.660156 -0.832031 0.703125 -1.28125 C 0.753906 -1.726562 0.722656 -2.300781 0.609375 -3 L -2.421875 -21.25 C -2.535156 -21.9375 -2.6875 -22.488281 -2.875 -22.90625 C -3.070312 -23.320312 -3.351562 -23.664062 -3.71875 -23.9375 L 3.59375 -25.140625 C 4.257812 -25.253906 4.789062 -25.226562 5.1875 -25.0625 C 5.582031 -24.90625 5.878906 -24.675781 6.078125 -24.375 C 6.273438 -24.070312 6.398438 -23.757812 6.453125 -23.4375 C 6.546875 -22.851562 6.472656 -22.222656 6.234375 -21.546875 C 6.003906 -20.867188 5.675781 -20.164062 5.25 -19.4375 C 4.832031 -18.707031 4.390625 -17.941406 3.921875 -17.140625 C 3.453125 -16.347656 3.015625 -15.523438 2.609375 -14.671875 C 2.210938 -13.828125 1.914062 -12.957031 1.71875 -12.0625 C 1.53125 -11.164062 1.507812 -10.253906 1.65625 -9.328125 C 1.75 -8.804688 1.9375 -8.226562 2.21875 -7.59375 C 2.5 -6.96875 2.859375 -6.335938 3.296875 -5.703125 C 3.734375 -5.078125 4.242188 -4.515625 4.828125 -4.015625 C 5.421875 -3.515625 6.078125 -3.144531 6.796875 -2.90625 C 7.515625 -2.664062 8.28125 -2.613281 9.09375 -2.75 C 9.601562 -2.832031 10.082031 -2.992188 10.53125 -3.234375 C 10.988281 -3.484375 11.34375 -3.800781 11.59375 -4.1875 C 11.84375 -4.570312 11.925781 -5.007812 11.84375 -5.5 C 11.738281 -6.132812 11.515625 -6.65625 11.171875 -7.0625 C 10.828125 -7.476562 10.425781 -7.84375 9.96875 -8.15625 C 9.507812 -8.476562 9.039062 -8.816406 8.5625 -9.171875 C 8.082031 -9.523438 7.660156 -9.957031 7.296875 -10.46875 C 6.929688 -10.988281 6.679688 -11.664062 6.546875 -12.5 C 6.441406 -13.101562 6.492188 -13.691406 6.703125 -14.265625 C 6.910156 -14.835938 7.234375 -15.328125 7.671875 -15.734375 C 8.117188 -16.148438 8.640625 -16.410156 9.234375 -16.515625 C 9.617188 -16.578125 10.125 -16.585938 10.75 -16.546875 C 11.382812 -16.503906 12.019531 -16.410156 12.65625 -16.265625 C 13.300781 -16.117188 13.859375 -15.921875 14.328125 -15.671875 C 14.804688 -15.429688 15.070312 -15.140625 15.125 -14.796875 C 15.195312 -14.328125 15.128906 -13.9375 14.921875 -13.625 C 14.710938 -13.3125 14.421875 -13.035156 14.046875 -12.796875 C 13.679688 -12.566406 13.289062 -12.347656 12.875 -12.140625 C 12.457031 -11.929688 12.0625 -11.71875 11.6875 -11.5 C 11.320312 -11.28125 11.03125 -11.019531 10.8125 -10.71875 C 10.601562 -10.425781 10.53125 -10.066406 10.59375 -9.640625 C 10.65625 -9.285156 10.835938 -9.003906 11.140625 -8.796875 C 11.453125 -8.585938 11.828125 -8.410156 12.265625 -8.265625 C 12.710938 -8.117188 13.179688 -7.96875 13.671875 -7.8125 C 14.171875 -7.65625 14.648438 -7.457031 15.109375 -7.21875 C 15.578125 -6.976562 15.976562 -6.671875 16.3125 -6.296875 C 16.644531 -5.921875 16.859375 -5.429688 16.953125 -4.828125 C 17.046875 -4.285156 16.984375 -3.851562 16.765625 -3.53125 C 16.554688 -3.207031 16.242188 -2.960938 15.828125 -2.796875 C 15.410156 -2.628906 14.945312 -2.5 14.4375 -2.40625 C 13.9375 -2.3125 13.453125 -2.226562 12.984375 -2.15625 Z M 12.984375 -2.15625 "/></g></g></g><g fill="#a197d0" fill-opacity="1"><g transform="translate(124.037742, 223.402198)"><g><path d="M -1.984375 -14.21875 C -2.003906 -14.351562 -1.972656 -14.441406 -1.890625 -14.484375 C -1.816406 -14.523438 -1.773438 -14.550781 -1.765625 -14.5625 C -1.585938 -14.695312 -1.304688 -14.890625 -0.921875 -15.140625 C -0.546875 -15.390625 -0.117188 -15.675781 0.359375 -16 C 0.847656 -16.320312 1.347656 -16.632812 1.859375 -16.9375 C 2.367188 -17.238281 2.84375 -17.492188 3.28125 -17.703125 C 3.726562 -17.921875 4.097656 -18.050781 4.390625 -18.09375 C 4.734375 -18.144531 4.953125 -18.078125 5.046875 -17.890625 C 5.140625 -17.710938 5.203125 -17.503906 5.234375 -17.265625 L 7.109375 -3.875 C 7.203125 -3.1875 7.335938 -2.628906 7.515625 -2.203125 C 7.703125 -1.785156 7.976562 -1.441406 8.34375 -1.171875 L 0.3125 -0.046875 C 0.59375 -0.410156 0.757812 -0.816406 0.8125 -1.265625 C 0.863281 -1.722656 0.84375 -2.296875 0.75 -2.984375 L -0.546875 -12.1875 C -0.554688 -12.28125 -0.582031 -12.457031 -0.625 -12.71875 C -0.664062 -12.976562 -0.753906 -13.226562 -0.890625 -13.46875 C -1.035156 -13.71875 -1.265625 -13.867188 -1.578125 -13.921875 C -1.617188 -13.941406 -1.691406 -13.957031 -1.796875 -13.96875 C -1.898438 -13.988281 -1.960938 -14.070312 -1.984375 -14.21875 Z M 0.71875 -25.984375 C 1.769531 -26.128906 2.660156 -25.925781 3.390625 -25.375 C 4.117188 -24.832031 4.554688 -24.035156 4.703125 -22.984375 C 4.847656 -21.929688 4.644531 -21.039062 4.09375 -20.3125 C 3.539062 -19.582031 2.738281 -19.144531 1.6875 -19 C 0.632812 -18.851562 -0.25 -19.050781 -0.96875 -19.59375 C -1.695312 -20.144531 -2.132812 -20.945312 -2.28125 -22 C -2.425781 -23.050781 -2.222656 -23.941406 -1.671875 -24.671875 C -1.128906 -25.398438 -0.332031 -25.835938 0.71875 -25.984375 Z M 0.71875 -25.984375 "/></g></g></g><g fill="#a197d0" fill-opacity="1"><g transform="translate(132.291603, 222.19486)"><g><path d="M -0.3125 -8.03125 C -0.457031 -9.28125 -0.410156 -10.476562 -0.171875 -11.625 C 0.0546875 -12.78125 0.484375 -13.828125 1.109375 -14.765625 C 1.742188 -15.710938 2.582031 -16.492188 3.625 -17.109375 C 4.675781 -17.722656 5.957031 -18.117188 7.46875 -18.296875 C 8.132812 -18.367188 8.8125 -18.347656 9.5 -18.234375 C 10.195312 -18.117188 10.84375 -17.9375 11.4375 -17.6875 C 12.03125 -17.445312 12.523438 -17.179688 12.921875 -16.890625 C 13.328125 -16.597656 13.546875 -16.304688 13.578125 -16.015625 C 13.597656 -15.804688 13.515625 -15.5625 13.328125 -15.28125 C 13.148438 -15.007812 12.921875 -14.726562 12.640625 -14.4375 C 12.359375 -14.144531 12.09375 -13.851562 11.84375 -13.5625 C 11.550781 -13.226562 11.238281 -12.875 10.90625 -12.5 C 10.570312 -12.125 10.269531 -11.800781 10 -11.53125 C 9.738281 -11.257812 9.546875 -11.117188 9.421875 -11.109375 C 9.234375 -11.085938 9.097656 -11.160156 9.015625 -11.328125 C 8.941406 -11.492188 8.84375 -11.722656 8.71875 -12.015625 C 8.601562 -12.316406 8.382812 -12.644531 8.0625 -13 C 7.476562 -13.644531 6.796875 -14.1875 6.015625 -14.625 C 5.234375 -15.0625 4.453125 -15.234375 3.671875 -15.140625 C 2.972656 -15.066406 2.46875 -14.769531 2.15625 -14.25 C 1.84375 -13.738281 1.726562 -13.125 1.8125 -12.40625 C 1.90625 -11.613281 2.203125 -10.851562 2.703125 -10.125 C 3.210938 -9.40625 3.847656 -8.738281 4.609375 -8.125 C 5.367188 -7.519531 6.191406 -7.003906 7.078125 -6.578125 C 7.960938 -6.148438 8.84375 -5.832031 9.71875 -5.625 C 10.601562 -5.414062 11.398438 -5.351562 12.109375 -5.4375 C 12.679688 -5.5 13.132812 -5.613281 13.46875 -5.78125 C 13.8125 -5.957031 14.078125 -6.132812 14.265625 -6.3125 C 14.453125 -6.5 14.601562 -6.664062 14.71875 -6.8125 C 14.84375 -6.957031 14.960938 -7.039062 15.078125 -7.0625 C 15.148438 -7.0625 15.234375 -7.035156 15.328125 -6.984375 C 15.429688 -6.929688 15.492188 -6.796875 15.515625 -6.578125 C 15.566406 -6.128906 15.492188 -5.597656 15.296875 -4.984375 C 15.109375 -4.378906 14.773438 -3.773438 14.296875 -3.171875 C 13.816406 -2.578125 13.175781 -2.050781 12.375 -1.59375 C 11.582031 -1.144531 10.609375 -0.851562 9.453125 -0.71875 C 8.296875 -0.59375 7.160156 -0.675781 6.046875 -0.96875 C 4.941406 -1.257812 3.9375 -1.734375 3.03125 -2.390625 C 2.132812 -3.054688 1.382812 -3.863281 0.78125 -4.8125 C 0.1875 -5.757812 -0.175781 -6.832031 -0.3125 -8.03125 Z M -0.3125 -8.03125 "/></g></g></g><g fill="#a197d0" fill-opacity="1"><g transform="translate(148.570052, 220.316095)"><g><path d="M -0.046875 -8.03125 C -0.191406 -9.8125 0.00390625 -11.425781 0.546875 -12.875 C 1.085938 -14.320312 1.96875 -15.5 3.1875 -16.40625 C 4.414062 -17.320312 5.96875 -17.859375 7.84375 -18.015625 C 9.28125 -18.128906 10.523438 -17.921875 11.578125 -17.390625 C 12.640625 -16.867188 13.472656 -16.140625 14.078125 -15.203125 C 14.679688 -14.265625 15.03125 -13.242188 15.125 -12.140625 C 15.1875 -11.335938 15.046875 -10.695312 14.703125 -10.21875 C 14.359375 -9.75 13.863281 -9.390625 13.21875 -9.140625 C 12.582031 -8.898438 11.859375 -8.726562 11.046875 -8.625 C 10.234375 -8.53125 9.375 -8.46875 8.46875 -8.4375 C 7.570312 -8.40625 6.703125 -8.351562 5.859375 -8.28125 C 5.742188 -8.269531 5.617188 -8.242188 5.484375 -8.203125 C 5.359375 -8.171875 5.304688 -8.050781 5.328125 -7.84375 C 5.347656 -7.632812 5.582031 -7.363281 6.03125 -7.03125 C 6.488281 -6.695312 7.070312 -6.363281 7.78125 -6.03125 C 8.5 -5.707031 9.25 -5.445312 10.03125 -5.25 C 10.820312 -5.050781 11.566406 -4.984375 12.265625 -5.046875 C 12.847656 -5.085938 13.3125 -5.1875 13.65625 -5.34375 C 14 -5.507812 14.265625 -5.679688 14.453125 -5.859375 C 14.648438 -6.035156 14.8125 -6.191406 14.9375 -6.328125 C 15.070312 -6.472656 15.195312 -6.550781 15.3125 -6.5625 C 15.382812 -6.570312 15.460938 -6.546875 15.546875 -6.484375 C 15.640625 -6.429688 15.695312 -6.296875 15.71875 -6.078125 C 15.75 -5.628906 15.660156 -5.097656 15.453125 -4.484375 C 15.242188 -3.878906 14.890625 -3.285156 14.390625 -2.703125 C 13.890625 -2.117188 13.234375 -1.613281 12.421875 -1.1875 C 11.617188 -0.769531 10.632812 -0.515625 9.46875 -0.421875 C 8.300781 -0.328125 7.171875 -0.441406 6.078125 -0.765625 C 4.984375 -1.097656 3.992188 -1.609375 3.109375 -2.296875 C 2.234375 -2.984375 1.507812 -3.8125 0.9375 -4.78125 C 0.375 -5.757812 0.046875 -6.84375 -0.046875 -8.03125 Z M 2.265625 -12.671875 C 2.316406 -12.097656 2.457031 -11.550781 2.6875 -11.03125 C 2.914062 -10.519531 3.25 -10.109375 3.6875 -9.796875 C 4.132812 -9.484375 4.679688 -9.351562 5.328125 -9.40625 C 5.878906 -9.445312 6.441406 -9.515625 7.015625 -9.609375 C 7.597656 -9.703125 8.128906 -9.828125 8.609375 -9.984375 C 9.085938 -10.140625 9.46875 -10.347656 9.75 -10.609375 C 10.039062 -10.878906 10.164062 -11.21875 10.125 -11.625 C 10.070312 -12.25 9.867188 -12.789062 9.515625 -13.25 C 9.160156 -13.707031 8.710938 -14.082031 8.171875 -14.375 C 7.640625 -14.675781 7.085938 -14.882812 6.515625 -15 C 5.941406 -15.125 5.398438 -15.164062 4.890625 -15.125 C 4.429688 -15.09375 3.992188 -14.96875 3.578125 -14.75 C 3.171875 -14.539062 2.84375 -14.257812 2.59375 -13.90625 C 2.34375 -13.550781 2.234375 -13.140625 2.265625 -12.671875 Z M 2.265625 -12.671875 "/></g></g></g><g fill="#a197d0" fill-opacity="1"><g transform="translate(164.904795, 218.966999)"><g><path d="M 0.25 -0.015625 C 0.550781 -0.347656 0.75 -0.738281 0.84375 -1.1875 C 0.945312 -1.644531 0.984375 -2.222656 0.953125 -2.921875 L 0.375 -14.140625 C 0.34375 -14.835938 0.253906 -15.398438 0.109375 -15.828125 C -0.0234375 -16.265625 -0.265625 -16.640625 -0.609375 -16.953125 L 5.296875 -17.25 C 5.816406 -17.269531 6.179688 -17.101562 6.390625 -16.75 C 6.597656 -16.394531 6.71875 -15.910156 6.75 -15.296875 L 6.765625 -14.890625 C 6.773438 -14.597656 6.796875 -14.429688 6.828125 -14.390625 C 6.867188 -14.347656 6.910156 -14.328125 6.953125 -14.328125 C 7.128906 -14.335938 7.296875 -14.457031 7.453125 -14.6875 C 7.617188 -14.914062 7.800781 -15.207031 8 -15.5625 C 8.207031 -15.914062 8.484375 -16.265625 8.828125 -16.609375 C 9.171875 -16.960938 9.597656 -17.265625 10.109375 -17.515625 C 10.617188 -17.765625 11.253906 -17.910156 12.015625 -17.953125 C 12.453125 -17.972656 12.90625 -17.9375 13.375 -17.84375 C 13.851562 -17.757812 14.257812 -17.617188 14.59375 -17.421875 C 14.925781 -17.234375 15.101562 -16.976562 15.125 -16.65625 C 15.125 -16.507812 15 -16.15625 14.75 -15.59375 C 14.5 -15.039062 14.234375 -14.453125 13.953125 -13.828125 C 13.648438 -13.148438 13.375 -12.53125 13.125 -11.96875 C 12.875 -11.414062 12.632812 -11.132812 12.40625 -11.125 C 12.144531 -11.113281 11.9375 -11.210938 11.78125 -11.421875 C 11.632812 -11.628906 11.472656 -11.867188 11.296875 -12.140625 C 11.117188 -12.410156 10.863281 -12.644531 10.53125 -12.84375 C 10.207031 -13.050781 9.753906 -13.140625 9.171875 -13.109375 C 8.492188 -13.078125 8 -12.875 7.6875 -12.5 C 7.382812 -12.132812 7.191406 -11.707031 7.109375 -11.21875 C 7.023438 -10.726562 6.992188 -10.257812 7.015625 -9.8125 L 7.359375 -3.234375 C 7.390625 -2.535156 7.472656 -1.96875 7.609375 -1.53125 C 7.753906 -1.09375 8 -0.722656 8.34375 -0.421875 Z M 0.25 -0.015625 "/></g></g></g><g fill="#a197d0" fill-opacity="1"><g transform="translate(180.857885, 218.202357)"><g><path d="M -0.375 -14.359375 C -0.382812 -14.492188 -0.347656 -14.578125 -0.265625 -14.609375 C -0.179688 -14.640625 -0.132812 -14.660156 -0.125 -14.671875 C 0.0703125 -14.785156 0.375 -14.945312 0.78125 -15.15625 C 1.1875 -15.363281 1.644531 -15.597656 2.15625 -15.859375 C 2.664062 -16.128906 3.191406 -16.382812 3.734375 -16.625 C 4.285156 -16.875 4.789062 -17.078125 5.25 -17.234375 C 5.71875 -17.398438 6.097656 -17.488281 6.390625 -17.5 C 6.742188 -17.507812 6.953125 -17.414062 7.015625 -17.21875 C 7.085938 -17.03125 7.128906 -16.816406 7.140625 -16.578125 L 7.5 -3.0625 C 7.519531 -2.363281 7.59375 -1.796875 7.71875 -1.359375 C 7.851562 -0.921875 8.085938 -0.539062 8.421875 -0.21875 L 0.3125 -0.015625 C 0.625 -0.335938 0.832031 -0.722656 0.9375 -1.171875 C 1.050781 -1.617188 1.097656 -2.191406 1.078125 -2.890625 L 0.828125 -12.1875 C 0.828125 -12.28125 0.820312 -12.457031 0.8125 -12.71875 C 0.800781 -12.976562 0.738281 -13.238281 0.625 -13.5 C 0.507812 -13.757812 0.296875 -13.9375 -0.015625 -14.03125 C -0.046875 -14.050781 -0.113281 -14.070312 -0.21875 -14.09375 C -0.320312 -14.125 -0.375 -14.210938 -0.375 -14.359375 Z M 3.625 -25.734375 C 4.6875 -25.765625 5.550781 -25.460938 6.21875 -24.828125 C 6.882812 -24.203125 7.226562 -23.359375 7.25 -22.296875 C 7.28125 -21.242188 6.976562 -20.382812 6.34375 -19.71875 C 5.71875 -19.0625 4.875 -18.71875 3.8125 -18.6875 C 2.75 -18.664062 1.882812 -18.96875 1.21875 -19.59375 C 0.5625 -20.21875 0.21875 -21.054688 0.1875 -22.109375 C 0.164062 -23.171875 0.46875 -24.035156 1.09375 -24.703125 C 1.71875 -25.367188 2.5625 -25.710938 3.625 -25.734375 Z M 3.625 -25.734375 "/></g></g></g><g fill="#a197d0" fill-opacity="1"><g transform="translate(189.183737, 217.916463)"><g><path d="M 0.609375 -3.78125 C 0.609375 -5.070312 0.863281 -6.203125 1.375 -7.171875 C 1.894531 -8.148438 2.59375 -8.988281 3.46875 -9.6875 C 4.34375 -10.394531 5.320312 -10.972656 6.40625 -11.421875 C 7.5 -11.878906 8.613281 -12.234375 9.75 -12.484375 C 10.101562 -12.566406 10.332031 -12.710938 10.4375 -12.921875 C 10.550781 -13.128906 10.609375 -13.335938 10.609375 -13.546875 C 10.609375 -13.910156 10.554688 -14.28125 10.453125 -14.65625 C 10.347656 -15.03125 10.144531 -15.351562 9.84375 -15.625 C 9.550781 -15.894531 9.109375 -16.015625 8.515625 -15.984375 C 7.898438 -15.960938 7.34375 -15.78125 6.84375 -15.4375 C 6.34375 -15.101562 5.882812 -14.691406 5.46875 -14.203125 C 5.0625 -13.710938 4.675781 -13.21875 4.3125 -12.71875 C 3.957031 -12.226562 3.625 -11.816406 3.3125 -11.484375 C 3 -11.160156 2.6875 -11 2.375 -11 C 2.1875 -11 2.015625 -11.070312 1.859375 -11.21875 C 1.703125 -11.375 1.625 -11.554688 1.625 -11.765625 L 1.625 -13.109375 C 1.625 -13.523438 1.628906 -13.929688 1.640625 -14.328125 C 1.648438 -14.734375 1.804688 -15.082031 2.109375 -15.375 C 2.929688 -16.164062 3.941406 -16.6875 5.140625 -16.9375 C 6.347656 -17.1875 7.59375 -17.316406 8.875 -17.328125 C 10.257812 -17.328125 11.46875 -17.113281 12.5 -16.6875 C 13.539062 -16.257812 14.394531 -15.691406 15.0625 -14.984375 C 15.726562 -14.285156 16.226562 -13.507812 16.5625 -12.65625 C 16.894531 -11.800781 17.0625 -10.9375 17.0625 -10.0625 L 17.078125 -2.875 C 17.078125 -2.175781 17.132812 -1.601562 17.25 -1.15625 C 17.375 -0.71875 17.597656 -0.335938 17.921875 -0.015625 L 11.984375 -0.015625 C 11.273438 -0.015625 10.859375 -0.363281 10.734375 -1.0625 C 10.703125 -1.269531 10.628906 -1.460938 10.515625 -1.640625 C 10.410156 -1.816406 10.269531 -1.90625 10.09375 -1.90625 C 9.84375 -1.90625 9.59375 -1.789062 9.34375 -1.5625 C 9.09375 -1.34375 8.785156 -1.078125 8.421875 -0.765625 C 8.066406 -0.460938 7.609375 -0.203125 7.046875 0.015625 C 6.492188 0.242188 5.785156 0.359375 4.921875 0.359375 C 4.140625 0.359375 3.421875 0.175781 2.765625 -0.1875 C 2.117188 -0.5625 1.597656 -1.054688 1.203125 -1.671875 C 0.804688 -2.296875 0.609375 -3 0.609375 -3.78125 Z M 9.75 -10.921875 C 9.226562 -10.921875 8.703125 -10.71875 8.171875 -10.3125 C 7.648438 -9.914062 7.222656 -9.359375 6.890625 -8.640625 C 6.554688 -7.921875 6.390625 -7.0625 6.390625 -6.0625 C 6.390625 -5.488281 6.457031 -4.945312 6.59375 -4.4375 C 6.738281 -3.9375 6.972656 -3.523438 7.296875 -3.203125 C 7.628906 -2.878906 8.09375 -2.722656 8.6875 -2.734375 C 9.351562 -2.734375 9.847656 -2.992188 10.171875 -3.515625 C 10.492188 -4.035156 10.65625 -4.691406 10.65625 -5.484375 C 10.65625 -6.242188 10.648438 -6.898438 10.640625 -7.453125 C 10.628906 -8.015625 10.617188 -8.664062 10.609375 -9.40625 C 10.609375 -9.957031 10.546875 -10.347656 10.421875 -10.578125 C 10.296875 -10.804688 10.070312 -10.921875 9.75 -10.921875 Z M 9.75 -10.921875 "/></g></g></g><g fill="#a197d0" fill-opacity="1"><g transform="translate(207.004725, 217.958745)"><g/></g></g><g fill="#a197d0" fill-opacity="1"><g transform="translate(215.221058, 218.042712)"><g><path d="M 10.234375 0.5625 C 8.972656 0.5 7.773438 0.25 6.640625 -0.1875 C 5.503906 -0.625 4.492188 -1.222656 3.609375 -1.984375 C 2.734375 -2.742188 2.050781 -3.65625 1.5625 -4.71875 C 1.082031 -5.789062 0.878906 -7.003906 0.953125 -8.359375 C 1.003906 -9.296875 1.273438 -10.113281 1.765625 -10.8125 C 2.265625 -11.507812 2.921875 -12.046875 3.734375 -12.421875 C 4.546875 -12.804688 5.453125 -12.972656 6.453125 -12.921875 C 7.097656 -12.878906 7.648438 -12.800781 8.109375 -12.6875 C 8.578125 -12.570312 9.015625 -12.453125 9.421875 -12.328125 C 9.828125 -12.203125 10.242188 -12.082031 10.671875 -11.96875 C 11.109375 -11.851562 11.609375 -11.78125 12.171875 -11.75 C 12.546875 -11.726562 12.914062 -11.734375 13.28125 -11.765625 C 13.65625 -11.796875 13.96875 -11.878906 14.21875 -12.015625 C 14.476562 -12.148438 14.617188 -12.34375 14.640625 -12.59375 C 14.648438 -12.8125 14.5625 -12.960938 14.375 -13.046875 C 14.195312 -13.128906 13.945312 -13.175781 13.625 -13.1875 C 13.125 -13.21875 12.507812 -13.207031 11.78125 -13.15625 C 11.0625 -13.101562 10.300781 -13.097656 9.5 -13.140625 C 8.625 -13.191406 7.78125 -13.363281 6.96875 -13.65625 C 6.164062 -13.945312 5.441406 -14.34375 4.796875 -14.84375 C 4.148438 -15.351562 3.648438 -15.972656 3.296875 -16.703125 C 2.941406 -17.429688 2.789062 -18.25 2.84375 -19.15625 C 2.894531 -20.25 3.257812 -21.203125 3.9375 -22.015625 C 4.613281 -22.828125 5.5 -23.453125 6.59375 -23.890625 C 7.695312 -24.328125 8.925781 -24.503906 10.28125 -24.421875 C 10.914062 -24.390625 11.546875 -24.273438 12.171875 -24.078125 C 12.796875 -23.878906 13.441406 -23.679688 14.109375 -23.484375 C 14.785156 -23.285156 15.484375 -23.164062 16.203125 -23.125 C 16.765625 -23.09375 17.210938 -23.144531 17.546875 -23.28125 C 17.890625 -23.425781 18.179688 -23.570312 18.421875 -23.71875 C 18.671875 -23.875 18.914062 -23.945312 19.15625 -23.9375 C 19.445312 -23.914062 19.617188 -23.738281 19.671875 -23.40625 C 19.722656 -23.082031 19.6875 -22.664062 19.5625 -22.15625 C 19.445312 -21.65625 19.253906 -21.125 18.984375 -20.5625 C 18.722656 -20.007812 18.394531 -19.488281 18 -19 C 17.613281 -18.507812 17.195312 -18.113281 16.75 -17.8125 C 16.300781 -17.507812 15.832031 -17.375 15.34375 -17.40625 C 14.445312 -17.457031 13.59375 -17.660156 12.78125 -18.015625 C 11.976562 -18.367188 11.191406 -18.765625 10.421875 -19.203125 C 9.648438 -19.640625 8.882812 -20.03125 8.125 -20.375 C 7.363281 -20.726562 6.585938 -20.929688 5.796875 -20.984375 C 5.335938 -21.003906 4.945312 -20.898438 4.625 -20.671875 C 4.300781 -20.441406 4.128906 -20.144531 4.109375 -19.78125 C 4.085938 -19.351562 4.300781 -19.019531 4.75 -18.78125 C 5.207031 -18.550781 5.804688 -18.367188 6.546875 -18.234375 C 7.296875 -18.097656 8.125 -17.96875 9.03125 -17.84375 C 9.9375 -17.726562 10.835938 -17.570312 11.734375 -17.375 C 12.628906 -17.1875 13.445312 -16.929688 14.1875 -16.609375 C 14.9375 -16.285156 15.523438 -15.847656 15.953125 -15.296875 C 16.378906 -14.742188 16.566406 -14.046875 16.515625 -13.203125 C 16.460938 -12.316406 16.007812 -11.625 15.15625 -11.125 C 14.300781 -10.632812 13.210938 -10.425781 11.890625 -10.5 C 11.117188 -10.539062 10.34375 -10.585938 9.5625 -10.640625 C 8.789062 -10.703125 8.078125 -10.71875 7.421875 -10.6875 C 6.773438 -10.664062 6.253906 -10.539062 5.859375 -10.3125 C 5.472656 -10.09375 5.265625 -9.726562 5.234375 -9.21875 C 5.191406 -8.519531 5.363281 -7.921875 5.75 -7.421875 C 6.132812 -6.929688 6.660156 -6.523438 7.328125 -6.203125 C 7.992188 -5.878906 8.71875 -5.632812 9.5 -5.46875 C 10.28125 -5.300781 11.050781 -5.195312 11.8125 -5.15625 C 12.65625 -5.113281 13.476562 -5.109375 14.28125 -5.140625 C 15.09375 -5.179688 15.828125 -5.265625 16.484375 -5.390625 C 17.140625 -5.515625 17.671875 -5.6875 18.078125 -5.90625 C 18.484375 -6.125 18.691406 -6.382812 18.703125 -6.6875 C 18.710938 -6.875 18.640625 -7.003906 18.484375 -7.078125 C 18.335938 -7.148438 18.175781 -7.1875 18 -7.1875 C 17.519531 -7.21875 16.953125 -7.140625 16.296875 -6.953125 C 15.648438 -6.765625 14.941406 -6.578125 14.171875 -6.390625 C 13.410156 -6.203125 12.609375 -6.128906 11.765625 -6.171875 C 11.265625 -6.203125 10.878906 -6.347656 10.609375 -6.609375 C 10.347656 -6.867188 10.226562 -7.195312 10.25 -7.59375 C 10.269531 -8.03125 10.476562 -8.367188 10.875 -8.609375 C 11.28125 -8.859375 11.796875 -9.0625 12.421875 -9.21875 C 13.046875 -9.382812 13.710938 -9.550781 14.421875 -9.71875 C 15.128906 -9.894531 15.796875 -10.128906 16.421875 -10.421875 C 17.046875 -10.710938 17.566406 -11.109375 17.984375 -11.609375 C 18.398438 -12.117188 18.628906 -12.796875 18.671875 -13.640625 C 18.691406 -13.960938 18.617188 -14.242188 18.453125 -14.484375 C 18.285156 -14.722656 18.085938 -14.925781 17.859375 -15.09375 C 17.640625 -15.257812 17.441406 -15.410156 17.265625 -15.546875 C 17.097656 -15.691406 17.019531 -15.835938 17.03125 -15.984375 C 17.039062 -16.179688 17.234375 -16.40625 17.609375 -16.65625 C 17.992188 -16.90625 18.453125 -17.144531 18.984375 -17.375 C 19.515625 -17.613281 20.023438 -17.804688 20.515625 -17.953125 C 21.015625 -18.109375 21.390625 -18.179688 21.640625 -18.171875 C 21.972656 -18.148438 22.3125 -17.992188 22.65625 -17.703125 C 23.007812 -17.421875 23.296875 -17.035156 23.515625 -16.546875 C 23.742188 -16.054688 23.84375 -15.492188 23.8125 -14.859375 C 23.757812 -14.066406 23.503906 -13.375 23.046875 -12.78125 C 22.585938 -12.1875 22 -11.675781 21.28125 -11.25 C 20.570312 -10.820312 19.828125 -10.457031 19.046875 -10.15625 C 18.265625 -9.863281 17.523438 -9.617188 16.828125 -9.421875 C 16.140625 -9.222656 15.570312 -9.035156 15.125 -8.859375 C 14.6875 -8.679688 14.460938 -8.503906 14.453125 -8.328125 C 14.453125 -8.222656 14.492188 -8.132812 14.578125 -8.0625 C 14.660156 -7.988281 14.757812 -7.953125 14.875 -7.953125 C 15.1875 -7.929688 15.523438 -7.992188 15.890625 -8.140625 C 16.253906 -8.296875 16.675781 -8.441406 17.15625 -8.578125 C 17.632812 -8.710938 18.179688 -8.765625 18.796875 -8.734375 C 19.578125 -8.691406 20.179688 -8.363281 20.609375 -7.75 C 21.035156 -7.144531 21.222656 -6.445312 21.171875 -5.65625 C 21.097656 -4.289062 20.585938 -3.117188 19.640625 -2.140625 C 18.703125 -1.171875 17.421875 -0.445312 15.796875 0.03125 C 14.179688 0.507812 12.328125 0.6875 10.234375 0.5625 Z M 10.234375 0.5625 "/></g></g></g><g fill="#a197d0" fill-opacity="1"><g transform="translate(238.330709, 219.441153)"><g/></g></g><g fill="#ffb5cf" fill-opacity="1"><g transform="translate(246.557292, 220.081414)"><g><path d="M 10.3125 1.53125 C 8.957031 1.375 7.71875 0.972656 6.59375 0.328125 C 5.476562 -0.316406 4.53125 -1.203125 3.75 -2.328125 C 2.976562 -3.453125 2.429688 -4.820312 2.109375 -6.4375 C 1.785156 -8.050781 1.738281 -9.894531 1.96875 -11.96875 C 2.101562 -13.15625 2.347656 -14.328125 2.703125 -15.484375 C 3.054688 -16.648438 3.523438 -17.738281 4.109375 -18.75 C 4.703125 -19.757812 5.390625 -20.632812 6.171875 -21.375 C 6.953125 -22.113281 7.835938 -22.660156 8.828125 -23.015625 C 9.828125 -23.378906 10.914062 -23.492188 12.09375 -23.359375 C 12.726562 -23.285156 13.320312 -23.132812 13.875 -22.90625 C 14.425781 -22.6875 14.988281 -22.460938 15.5625 -22.234375 C 16.144531 -22.003906 16.800781 -21.847656 17.53125 -21.765625 C 18.09375 -21.703125 18.546875 -21.734375 18.890625 -21.859375 C 19.242188 -21.984375 19.546875 -22.113281 19.796875 -22.25 C 20.046875 -22.382812 20.289062 -22.4375 20.53125 -22.40625 C 20.84375 -22.363281 21.003906 -22.160156 21.015625 -21.796875 C 21.023438 -21.429688 20.941406 -20.988281 20.765625 -20.46875 C 20.585938 -19.945312 20.351562 -19.4375 20.0625 -18.9375 C 19.914062 -18.695312 19.734375 -18.425781 19.515625 -18.125 C 19.304688 -17.820312 19.066406 -17.519531 18.796875 -17.21875 C 18.492188 -16.90625 18.140625 -16.582031 17.734375 -16.25 C 17.328125 -15.914062 16.925781 -15.5625 16.53125 -15.1875 C 16.132812 -14.8125 15.789062 -14.421875 15.5 -14.015625 C 15.21875 -13.609375 15.054688 -13.1875 15.015625 -12.75 C 14.960938 -12.34375 15.050781 -11.976562 15.28125 -11.65625 C 15.507812 -11.332031 15.832031 -11.144531 16.25 -11.09375 C 16.507812 -11.070312 16.664062 -11.097656 16.71875 -11.171875 C 16.78125 -11.253906 16.878906 -11.285156 17.015625 -11.265625 C 17.191406 -11.242188 17.300781 -11.066406 17.34375 -10.734375 C 17.394531 -10.398438 17.40625 -10.109375 17.375 -9.859375 C 17.3125 -9.273438 17.070312 -8.738281 16.65625 -8.25 C 16.25 -7.757812 15.734375 -7.382812 15.109375 -7.125 C 14.492188 -6.863281 13.84375 -6.769531 13.15625 -6.84375 C 12.507812 -6.914062 11.929688 -7.140625 11.421875 -7.515625 C 10.921875 -7.890625 10.53125 -8.351562 10.25 -8.90625 C 9.976562 -9.46875 9.878906 -10.066406 9.953125 -10.703125 C 10.035156 -11.429688 10.273438 -12.039062 10.671875 -12.53125 C 11.078125 -13.019531 11.546875 -13.429688 12.078125 -13.765625 C 12.609375 -14.097656 13.140625 -14.367188 13.671875 -14.578125 C 14.203125 -14.785156 14.644531 -14.976562 15 -15.15625 C 15.351562 -15.34375 15.546875 -15.535156 15.578125 -15.734375 C 15.609375 -16.035156 15.410156 -16.253906 14.984375 -16.390625 C 14.171875 -16.617188 13.460938 -16.914062 12.859375 -17.28125 C 12.253906 -17.65625 11.6875 -18.039062 11.15625 -18.4375 C 10.632812 -18.832031 10.097656 -19.175781 9.546875 -19.46875 C 8.992188 -19.769531 8.375 -19.957031 7.6875 -20.03125 C 7.28125 -20.082031 6.9375 -20.015625 6.65625 -19.828125 C 6.375 -19.640625 6.144531 -19.390625 5.96875 -19.078125 C 5.789062 -18.773438 5.65625 -18.46875 5.5625 -18.15625 C 5.46875 -17.851562 5.410156 -17.585938 5.390625 -17.359375 C 5.273438 -16.359375 5.273438 -15.28125 5.390625 -14.125 C 5.503906 -12.96875 5.742188 -11.816406 6.109375 -10.671875 C 6.472656 -9.523438 6.957031 -8.457031 7.5625 -7.46875 C 8.175781 -6.488281 8.921875 -5.675781 9.796875 -5.03125 C 10.671875 -4.394531 11.6875 -4.007812 12.84375 -3.875 C 13.6875 -3.78125 14.398438 -3.820312 14.984375 -4 C 15.566406 -4.1875 16.046875 -4.429688 16.421875 -4.734375 C 16.796875 -5.046875 17.113281 -5.367188 17.375 -5.703125 C 17.632812 -6.035156 17.867188 -6.3125 18.078125 -6.53125 C 18.296875 -6.75 18.523438 -6.84375 18.765625 -6.8125 C 18.910156 -6.789062 19.035156 -6.695312 19.140625 -6.53125 C 19.253906 -6.375 19.28125 -6.015625 19.21875 -5.453125 C 19.125 -4.679688 18.847656 -3.859375 18.390625 -2.984375 C 17.929688 -2.109375 17.316406 -1.304688 16.546875 -0.578125 C 15.785156 0.148438 14.875 0.71875 13.8125 1.125 C 12.757812 1.539062 11.59375 1.675781 10.3125 1.53125 Z M 10.3125 1.53125 "/></g></g></g><g fill="#ffb5cf" fill-opacity="1"><g transform="translate(265.090463, 222.182918)"><g><path d="M 3.359375 -1.640625 C 2.660156 -2.628906 2.1875 -3.679688 1.9375 -4.796875 C 1.6875 -5.910156 1.65625 -7.03125 1.84375 -8.15625 C 2.03125 -9.28125 2.425781 -10.347656 3.03125 -11.359375 C 3.632812 -12.367188 4.425781 -13.242188 5.40625 -13.984375 C 6.425781 -14.722656 7.507812 -15.234375 8.65625 -15.515625 C 9.800781 -15.796875 10.9375 -15.851562 12.0625 -15.6875 C 13.144531 -15.519531 14.171875 -15.15625 15.140625 -14.59375 C 16.109375 -14.03125 16.9375 -13.265625 17.625 -12.296875 C 18.332031 -11.335938 18.804688 -10.300781 19.046875 -9.1875 C 19.296875 -8.070312 19.328125 -6.953125 19.140625 -5.828125 C 18.960938 -4.703125 18.570312 -3.632812 17.96875 -2.625 C 17.375 -1.613281 16.578125 -0.738281 15.578125 0 C 14.578125 0.738281 13.5 1.25 12.34375 1.53125 C 11.1875 1.820312 10.050781 1.882812 8.9375 1.71875 C 7.851562 1.550781 6.820312 1.1875 5.84375 0.625 C 4.875 0.0625 4.046875 -0.691406 3.359375 -1.640625 Z M 10.453125 -14.625 C 9.910156 -14.625 9.421875 -14.273438 8.984375 -13.578125 C 8.546875 -12.878906 8.203125 -11.945312 7.953125 -10.78125 C 7.710938 -9.625 7.585938 -8.320312 7.578125 -6.875 C 7.597656 -5.46875 7.734375 -4.179688 7.984375 -3.015625 C 8.242188 -1.859375 8.59375 -0.9375 9.03125 -0.25 C 9.476562 0.4375 9.96875 0.78125 10.5 0.78125 C 11.019531 0.769531 11.492188 0.421875 11.921875 -0.265625 C 12.347656 -0.953125 12.6875 -1.878906 12.9375 -3.046875 C 13.195312 -4.210938 13.328125 -5.515625 13.328125 -6.953125 C 13.347656 -8.367188 13.222656 -9.65625 12.953125 -10.8125 C 12.691406 -11.976562 12.347656 -12.898438 11.921875 -13.578125 C 11.492188 -14.265625 11.003906 -14.613281 10.453125 -14.625 Z M 10.453125 -14.625 "/></g></g></g><g fill="#ffb5cf" fill-opacity="1"><g transform="translate(283.329308, 224.999319)"><g><path d="M 0.96875 -2.6875 C 1.070312 -3.257812 1.300781 -3.753906 1.65625 -4.171875 C 2.019531 -4.585938 2.460938 -4.890625 2.984375 -5.078125 C 3.503906 -5.273438 4.050781 -5.320312 4.625 -5.21875 C 5.207031 -5.125 5.707031 -4.894531 6.125 -4.53125 C 6.539062 -4.175781 6.847656 -3.738281 7.046875 -3.21875 C 7.242188 -2.695312 7.289062 -2.148438 7.1875 -1.578125 C 7.09375 -1.003906 6.859375 -0.503906 6.484375 -0.078125 C 6.117188 0.335938 5.679688 0.644531 5.171875 0.84375 C 4.660156 1.039062 4.113281 1.09375 3.53125 1 C 2.957031 0.894531 2.457031 0.660156 2.03125 0.296875 C 1.601562 -0.0664062 1.296875 -0.507812 1.109375 -1.03125 C 0.921875 -1.5625 0.875 -2.113281 0.96875 -2.6875 Z M 0.96875 -2.6875 "/></g></g></g></svg>